<svg version="1.1" xmlns="http://www.w3.org/2000/svg" xmlns:xlink="http://www.w3.org/1999/xlink" viewBox="0 0 172 172"><g fill="none" fill-rule="nonzero" stroke="none" stroke-width="1" stroke-linecap="butt" stroke-linejoin="miter" stroke-miterlimit="10" stroke-dasharray="" stroke-dashoffset="0" font-family="none" font-weight="none" font-size="none" text-anchor="none" style="mix-blend-mode: normal"><path d="M0,172v-172h172v172z" fill="none"></path><g fill="#3498db"><path d="M149.07563,13.76h-126.13781c-5.06594,0 -9.17781,4.11188 -9.17781,9.17781v126.12437c0,5.06594 4.11188,9.17781 9.17781,9.17781h126.12437c5.06594,0 9.17781,-4.11187 9.17781,-9.16437v-126.13781c0,-5.06594 -4.11187,-9.17781 -9.16437,-9.17781zM92.88,124.47156c0,13.74656 -8.0625,20.00844 -19.83375,20.00844c-10.6425,0 -18.31531,-7.13531 -21.44625,-13.76l10.81719,-6.54406c2.08281,3.69531 5.25406,6.54406 9.82281,6.54406c4.36719,0 6.88,-1.70656 6.88,-8.34469v-43.25531h13.76zM122.72469,144.48c-12.18781,0 -19.10812,-6.14094 -22.96469,-13.76l10.32,-6.88c2.80844,4.59563 5.87219,8.98969 12.34906,8.98969c5.44219,0 8.29094,-2.71437 8.29094,-6.47687c0,-4.48813 -2.95625,-6.08719 -8.93594,-8.7075l-3.27875,-1.41094c-9.47344,-4.03125 -15.77563,-9.08375 -15.77563,-19.78c0,-9.83625 7.51156,-17.33438 19.22906,-17.33438c8.34469,0 14.33781,2.9025 18.66469,10.50813l-10.2125,6.57094c-2.2575,-4.04469 -4.67625,-5.63031 -8.45219,-5.63031c-3.84312,0 -6.27531,2.44563 -6.27531,5.63031c0,3.93719 2.43219,5.52281 8.0625,7.96844l3.27875,1.41094c11.16656,4.77031 17.45531,9.64813 17.45531,20.61313c0,11.81156 -9.28531,18.28844 -21.75531,18.28844z"></path></g></g></svg>