<svg version="1.1" xmlns="http://www.w3.org/2000/svg" xmlns:xlink="http://www.w3.org/1999/xlink" viewBox="0 0 172 172"><g fill="none" fill-rule="nonzero" stroke="none" stroke-width="1" stroke-linecap="butt" stroke-linejoin="miter" stroke-miterlimit="10" stroke-dasharray="" stroke-dashoffset="0" font-family="none" font-weight="none" font-size="none" text-anchor="none" style="mix-blend-mode: normal"><path d="M0,172v-172h172v172z" fill="none"></path><g fill="#3498db"><path d="M85.75813,6.88672c-0.37797,0.00172 -0.75911,0.06428 -1.12203,0.18813l-72.00485,25.06094c-1.52736,0.52976 -2.48389,2.05524 -2.28437,3.66172l11.38156,93.30328c0.13416,1.10424 0.78663,2.07711 1.76703,2.60687l60.71063,32.99578c0.50912,0.27864 1.07521,0.41656 1.63937,0.41656c0.5676,0 1.14025,-0.1412 1.65281,-0.42328l61.01969,-33.44594c0.97008,-0.5332 1.62959,-1.50279 1.76031,-2.60015l11.37485,-93.29656c0.19952,-1.61336 -0.76669,-3.15228 -2.31125,-3.67516l-72.46844,-24.6175c-0.3612,-0.1204 -0.73734,-0.17641 -1.11531,-0.17469zM86,24.08l44.72,96.32h-15.265l-9.5675,-20.61313h-39.775l-9.5675,20.61313h-15.265zM86,56.76l-13.48453,29.24h26.96906z"></path></g></g></svg>