<svg version="1.1" xmlns="http://www.w3.org/2000/svg" xmlns:xlink="http://www.w3.org/1999/xlink" viewBox="0 0 172 172"><g fill="none" fill-rule="nonzero" stroke="none" stroke-width="1" stroke-linecap="butt" stroke-linejoin="miter" stroke-miterlimit="10" stroke-dasharray="" stroke-dashoffset="0" font-family="none" font-weight="none" font-size="none" text-anchor="none" style="mix-blend-mode: normal"><path d="M0,172v-172h172v172z" fill="none"></path><g fill="#3498db"><path d="M114.4917,32.25c-0.84387,0 -1.6167,0.67607 -1.6167,1.6167v29.5415l-6.69776,-3.90528c-0.41925,-0.24724 -0.89174,-0.36743 -1.36474,-0.36743c-0.473,0 -0.94549,0.12018 -1.36474,0.36743l-16.09351,9.38526c-0.8385,0.48375 -1.35425,1.37894 -1.35425,2.34107v18.79151c0,0.9675 0.51575,1.85732 1.35425,2.34107l16.09351,9.38526c0.41925,0.24724 0.89174,0.36743 1.36474,0.36743c0.473,0 0.94549,-0.12018 1.36474,-0.36743l16.09351,-9.38526c0.8385,-0.48375 1.35425,-1.37894 1.35425,-2.34107v-9.39575v-9.39575v-32.36548c0,-0.95675 -0.51088,-1.83632 -1.33325,-2.32007l-7.0022,-4.07324c-0.26337,-0.1505 -0.5291,-0.22046 -0.79785,-0.22046zM61.8125,59.1355c-0.47166,0 -0.94281,0.12287 -1.36474,0.36743l-16.09351,9.38526c-0.8385,0.48375 -1.35425,1.37894 -1.35425,2.34107v18.79151c0,0.9675 0.51575,1.85732 1.35425,2.34107l16.09351,9.38526c0.84387,0.48913 1.88561,0.48913 2.72949,0l16.09351,-9.38526c0.8385,-0.48375 1.35425,-1.37894 1.35425,-2.34107v-18.79151c0,-0.9675 -0.51575,-1.85732 -1.35425,-2.34107l-16.09351,-9.38526c-0.42194,-0.24456 -0.89309,-0.36743 -1.36474,-0.36743zM147.8125,59.1355c-0.473,0 -0.94549,0.12018 -1.36474,0.36743l-16.09351,9.38526c-0.8385,0.48375 -1.35425,1.37894 -1.35425,2.34107v18.79151c0,0.9675 0.51575,1.85732 1.35425,2.34107l15.6106,9.43774c0.8385,0.51062 1.89074,0.51549 2.73999,0.02099l7.67407,-4.46167c0.7955,-0.45687 0.80088,-1.61099 0,-2.07861l-16.62891,-9.79467v-9.64771l8.0625,-4.69263l8.0625,4.69263v6.71875c0,0.89763 0.75452,1.03586 1.25977,0.73486c2.03175,-1.19325 8.15698,-4.74512 8.15698,-4.74512c0.82237,-0.47837 1.33325,-1.36331 1.33325,-2.32006v-4.99707c0,-0.9675 -0.51575,-1.85732 -1.35425,-2.34107l-16.09351,-9.38526c-0.42462,-0.24724 -0.89174,-0.36743 -1.36474,-0.36743zM18.8125,59.14599c-0.473,0 -0.9455,0.12018 -1.36475,0.36744l-16.09351,9.37475c-0.8385,0.48913 -1.35425,1.38406 -1.35425,2.35156v23.98804c0,1.17175 1.26758,1.89813 2.27808,1.31226l7.13867,-4.15723c0.82237,-0.48375 1.33325,-1.36332 1.33325,-2.32007v-14.20386l8.0625,-4.70312l8.0625,4.70313v14.20386c0,0.95675 0.51088,1.83632 1.33325,2.32007l7.13867,4.15723c1.0105,0.59125 2.27808,-0.14051 2.27808,-1.31226v-23.98804c0,-0.9675 -0.51575,-1.86244 -1.35425,-2.35156l-16.09351,-9.37475c-0.41925,-0.24725 -0.89175,-0.36744 -1.36475,-0.36744zM104.8125,71.14526l8.0625,4.70313v4.77661v4.77661l-8.0625,4.70313l-8.0625,-4.70312v-9.55322zM147.8125,75.27099l-4.60864,2.6875v5.3645l4.60864,2.677l4.60864,-2.677v-5.3645zM82.80859,96.7395c-0.55295,0 -1.11195,0.1353 -1.5957,0.40942l-15.11719,8.73438c-0.99438,0.54825 -1.5957,1.62711 -1.5957,2.75049v17.44775c0,1.12337 0.6282,2.18074 1.5957,2.75049l3.97876,2.26758c1.90812,0.94063 2.60948,0.94482 3.47486,0.94482c2.84875,0 4.47217,-1.70362 4.47217,-4.71362v-17.23779c0,-0.26337 -0.20442,-0.45141 -0.44092,-0.45141h-1.91065c-0.26337,0 -0.45141,0.21491 -0.45141,0.45141v17.23779c0,1.30612 -1.3802,2.64559 -3.63233,1.52222l-4.13623,-2.38305c-0.13438,-0.08062 -0.23096,-0.24305 -0.23096,-0.39893v-17.44776c0,-0.15587 0.07508,-0.3393 0.23096,-0.41992l15.11719,-8.71337c0.16125,-0.08063 0.34341,-0.08063 0.47241,0l15.12768,8.71337c0.15587,0.08063 0.23096,0.23717 0.23096,0.41992v17.44776c0,0.18275 -0.10196,0.3393 -0.23096,0.41992l-15.12768,8.74487c-0.13437,0.08062 -0.34341,0.08062 -0.47241,0l-3.86328,-2.29907c-0.10213,-0.05375 -0.2653,-0.08525 -0.36743,-0.0315c-1.06963,0.62888 -1.2837,0.71118 -2.27808,1.04981c-0.26337,0.08062 -0.6214,0.24213 0.13647,0.66138l5.01807,2.98144c0.49988,0.26337 1.04745,0.41992 1.5957,0.41992c0.57512,0 1.13396,-0.15604 1.57471,-0.44092l15.11719,-8.74487c0.99438,-0.54825 1.5957,-1.62711 1.5957,-2.75049v-17.44775c0,-1.12338 -0.6282,-2.17536 -1.5957,-2.75049l-15.11719,-8.73437c-0.47031,-0.27412 -1.02176,-0.40942 -1.57471,-0.40942zM106.38721,104.79151c-1.54263,0 -2.89746,1.24733 -2.89746,2.89746c0,1.59638 1.30109,2.90796 2.89746,2.90796c1.59637,0 2.89746,-1.31159 2.89746,-2.90796c0,-1.65013 -1.32796,-2.92433 -2.89746,-2.89746zM106.35571,105.25342c1.36525,0 2.46704,1.07567 2.46704,2.43555c0,1.333 -1.10717,2.43479 -2.46704,2.46704c-1.33838,0 -2.42504,-1.10717 -2.42504,-2.46704c0,-1.35988 1.09204,-2.43555 2.42504,-2.43555zM105.29541,106.04077v3.26489h0.61938v-1.30176h0.57739c0.2365,0 0.29268,0.1007 0.34643,0.28345c0,0.02688 0.0991,0.87294 0.12598,1.02881h0.67188c-0.07525,-0.15588 -0.1306,-0.60259 -0.15747,-0.87134c-0.07525,-0.41925 -0.09978,-0.70799 -0.5459,-0.73486c0.2365,-0.08062 0.62989,-0.20635 0.62989,-0.80835c0,-0.86538 -0.75191,-0.86084 -1.14429,-0.86084zM105.91479,106.56567h0.5249c0.16125,0 0.47241,-0.00521 0.47241,0.44092c0,0.18275 -0.07928,0.47779 -0.50391,0.47241h-0.49341zM86.86084,109.23218c-4.31612,0 -6.87622,1.83959 -6.87622,4.87109c0,3.32175 2.56438,4.21039 6.69776,4.62964c4.945,0.4945 5.33301,1.2056 5.33301,2.1731c0,1.6985 -1.36341,2.40405 -4.55616,2.40405c-4.00437,0 -4.88528,-0.99269 -5.17553,-2.98144c-0.02688,-0.20962 -0.21492,-0.36744 -0.45142,-0.36744h-1.96313c-0.2365,0 -0.44092,0.18804 -0.44092,0.45142c0,2.537 1.38289,5.57446 7.99951,5.57446c4.85362,-0.00538 7.60059,-1.88579 7.60059,-5.18604c0,-3.268 -2.20048,-4.13723 -6.85523,-4.76611c-4.7085,-0.62887 -5.17554,-0.94525 -5.17554,-2.04712c0,-0.91375 0.38566,-2.11011 3.86328,-2.11011c3.11213,0 4.27212,0.68061 4.74512,2.77148c0.05375,0.20962 0.1998,0.33594 0.40942,0.33594h1.96313c0.129,0 0.23969,-0.05072 0.31494,-0.12597c0.08062,-0.10213 0.13185,-0.20694 0.10498,-0.33594c-0.31175,-3.612 -2.69472,-5.29102 -7.5376,-5.29102z"></path></g></g></svg>