<svg version="1.1" xmlns="http://www.w3.org/2000/svg" xmlns:xlink="http://www.w3.org/1999/xlink" viewBox="0 0 172 172"><g fill="none" fill-rule="nonzero" stroke="none" stroke-width="1" stroke-linecap="butt" stroke-linejoin="miter" stroke-miterlimit="10" stroke-dasharray="" stroke-dashoffset="0" font-family="none" font-weight="none" font-size="none" text-anchor="none" style="mix-blend-mode: normal"><path d="M0,172v-172h172v172z" fill="none"></path><g fill="#3498db"><path d="M154.8,13.76h-137.6c-1.90232,0 -3.44,1.54112 -3.44,3.44v137.6c0,1.89888 1.53768,3.44 3.44,3.44h137.6c1.90232,0 3.44,-1.54112 3.44,-3.44v-137.6c0,-1.89888 -1.53768,-3.44 -3.44,-3.44zM99.76,90.9708h-17.2v53.5092h-13.76v-53.5092h-17.2v-11.8508h48.16zM103.61624,141.42528v-14.30352c0,0 7.81224,5.88928 17.18624,5.88928c9.374,0 9.0128,-6.13008 9.0128,-6.96944c0,-8.89584 -26.56024,-8.89584 -26.56024,-28.6036c0,-26.80104 38.7,-16.22648 38.7,-16.22648l-0.4816,12.74176c0,0 -6.49128,-4.32752 -13.82192,-4.32752c-7.33064,0 -9.976,3.48472 -9.976,7.21024c0,9.6148 26.80104,8.65504 26.80104,28.00504c0.00344,29.80416 -40.86032,16.58424 -40.86032,16.58424z"></path></g></g></svg>